<svg width="190" height="190" viewBox="0 0 190 190" fill="none" xmlns="http://www.w3.org/2000/svg">
<path d="M35.625 95H71.25V106.875H35.625V95Z" fill="#3B359F"/>
<path d="M35.625 71.25H95V83.125H35.625V71.25Z" fill="#3B359F"/>
<path d="M35.625 47.5H95V59.375H35.625V47.5Z" fill="#3B359F"/>
<path d="M83.125 154.375H23.75V35.625H166.25V95H178.125V35.625C178.125 32.4756 176.874 29.4551 174.647 27.2281C172.42 25.0011 169.399 23.75 166.25 23.75H23.75C20.6006 23.75 17.5801 25.0011 15.3531 27.2281C13.1261 29.4551 11.875 32.4756 11.875 35.625V154.375C11.875 157.524 13.1261 160.545 15.3531 162.772C17.5801 164.999 20.6006 166.25 23.75 166.25H83.125V154.375Z" fill="#3B359F"/>
<path d="M130.625 151.941L115.247 136.562L106.875 144.934L130.625 168.684L178.125 121.184L169.753 112.812L130.625 151.941Z" fill="#3B359F"/>
</svg>
