<svg width="146" height="146" viewBox="0 0 146 146" fill="none" xmlns="http://www.w3.org/2000/svg">
<g clip-path="url(#clip0_409_2127)">
<path d="M82.125 146C72.2396 146 63.0908 143.203 54.6787 137.608C46.2666 132.014 39.613 124.41 34.7178 114.796C29.8226 105.182 27.375 94.7262 27.375 83.4286C27.375 76.4762 28.8958 69.8225 31.9375 63.4676C34.9792 57.1127 39.3516 51.8984 45.0547 47.8248C50.7578 43.7511 57.0312 41.7143 63.875 41.7143C68.6276 41.7143 72.8574 44.1856 76.5645 49.1283C80.2715 54.0711 82.125 60.2902 82.125 67.7857C81.9349 67.3512 81.6497 66.7809 81.2695 66.0748C80.8893 65.3687 80.1051 64.1194 78.917 62.327C77.7288 60.5346 76.4694 58.9594 75.1387 57.6016C73.8079 56.2437 72.1208 54.9944 70.0771 53.8538C68.0335 52.7132 65.9661 52.1429 63.875 52.1429C58.9323 52.1429 54.6549 54.8858 51.043 60.3717C47.431 65.8575 45.625 73.5432 45.625 83.4286C45.625 94.9435 49.1895 104.775 56.3184 112.922C63.4473 121.069 72.0495 125.143 82.125 125.143C90.3945 125.143 98.0225 122.807 105.009 118.136C111.995 113.465 117.532 107.137 121.619 99.1529C125.706 91.1685 127.75 82.4509 127.75 73C127.75 59.4211 125.968 47.0372 122.403 35.8482C118.839 24.6592 114.538 16.186 109.5 10.4286C122.712 15.4256 132.099 22.9754 137.659 33.0781C143.22 43.1808 146 56.4881 146 73C146 82.8854 144.313 92.3363 140.938 101.353C137.564 110.369 133.025 118.136 127.322 124.654C121.619 131.172 114.823 136.359 106.934 140.215C99.0443 144.072 90.7747 146 82.125 146ZM82.125 104.286C77.3724 104.286 73.1426 101.814 69.4355 96.8717C65.7285 91.9289 63.875 85.7098 63.875 78.2143C64.0651 78.6488 64.3503 79.2191 64.7305 79.9252C65.1107 80.6313 65.8949 81.8806 67.083 83.673C68.2712 85.4654 69.5306 87.0406 70.8613 88.3984C72.1921 89.7563 73.8792 91.0056 75.9229 92.1462C77.9665 93.2868 80.0339 93.8571 82.125 93.8571C87.0677 93.8571 91.3451 91.1142 94.957 85.6283C98.569 80.1425 100.375 72.4568 100.375 62.5714C100.375 51.0565 96.8105 41.2254 89.6816 33.0781C82.5527 24.9308 73.9505 20.8571 63.875 20.8571C55.6055 20.8571 47.9775 23.1927 40.9912 27.8638C34.0049 32.535 28.4681 38.8627 24.3809 46.8471C20.2936 54.8315 18.25 63.5491 18.25 73C18.25 86.5789 20.0322 98.9628 23.5967 110.152C27.1611 121.341 31.4622 129.814 36.5 135.571C23.2878 130.574 13.9014 123.025 8.34082 112.922C2.78027 102.819 0 89.5119 0 73C0 63.1146 1.68717 53.6637 5.06152 44.6473C8.43587 35.631 12.9746 27.8638 18.6777 21.346C24.3809 14.8281 31.1771 9.641 39.0664 5.7846C46.9557 1.9282 55.2253 0 63.875 0C73.7604 0 82.9092 2.79725 91.3213 8.39174C99.7334 13.9862 106.387 21.5904 111.282 31.2042C116.177 40.8181 118.625 51.2738 118.625 62.5714C118.625 69.5238 117.104 76.1775 114.062 82.5324C111.021 88.8873 106.648 94.1016 100.945 98.1752C95.2422 102.249 88.9688 104.286 82.125 104.286Z" fill="#3B359F"/>
</g>
<defs>
<clipPath id="clip0_409_2127">
<rect width="146" height="146" fill="white"/>
</clipPath>
</defs>
</svg>
