<svg width="174" height="174" viewBox="0 0 174 174" fill="none" xmlns="http://www.w3.org/2000/svg">
<path d="M145.298 65.8595L88.7619 22.0776C87.9881 21.4793 87.0356 21.1583 86.0574 21.1662C85.0792 21.174 84.1321 21.5104 83.3679 22.1211L28.6397 65.9013C28.13 66.3101 27.7186 66.8282 27.4359 67.4172C27.1531 68.0063 27.0061 68.6513 27.0059 69.3047V148.475C27.0056 149.047 27.1182 149.614 27.3372 150.143C27.5561 150.672 27.8772 151.152 28.282 151.557C28.6868 151.962 29.1674 152.283 29.6963 152.502C30.2252 152.721 30.7921 152.834 31.3646 152.833H63.8973C65.0532 152.833 66.1616 152.374 66.9789 151.556C67.7962 150.739 68.2556 149.631 68.256 148.475V100H105.736V148.475C105.736 149.631 106.195 150.739 107.012 151.557C107.83 152.374 108.938 152.833 110.094 152.833H142.632C143.788 152.833 144.897 152.374 145.714 151.556C146.531 150.739 146.991 149.631 146.991 148.475V69.3047C146.991 68.6392 146.839 67.9824 146.545 67.3851C146.252 66.7878 145.825 66.2658 145.298 65.8595Z" fill="#3B359F"/>
</svg>
