<?xml version="1.0" encoding="UTF-8"?>
<svg id="Layer_1" data-name="Layer 1" xmlns="http://www.w3.org/2000/svg" viewBox="0 0 310.26 285.32">
  <defs>
    <style>
      .cls-1 {
        fill: #fff;
        stroke-width: 0px;
      }
    </style>
  </defs>
  <path class="cls-1" d="M229.28,55.04H80.98c-7.44,0-13.48,6.03-13.48,13.48v148.3c0,7.44,6.03,13.48,13.48,13.48h148.3c7.44,0,13.48-6.03,13.48-13.48V68.51c0-7.44-6.03-13.48-13.48-13.48ZM120.49,204.4h-26.1v-83.47h26.1v83.47ZM107.44,109c-7.99,0-14.47-6.48-14.47-14.47s6.48-14.47,14.47-14.47,14.47,6.48,14.47,14.47-6.48,14.47-14.47,14.47ZM216.82,204.4h-25.94v-45.39c0-10.14-4.99-14.96-6.32-15.63-1.33-.67-10.14-3.99-16.46.83s-5.99,14.13-5.99,14.13v46.06h-26.27v-83.47h25.61v11.82c.03-.65.52-3.34,5.99-7.66,6.32-4.99,17.29-5.82,17.29-5.82,0,0,11.47-.33,17.96,3.49,6.48,3.82,8.65,7.48,10.81,13.14.68,1.77,1.25,4.25,1.73,6.82,1.11,6.03,1.6,12.16,1.6,18.29v43.38Z"/>
</svg>