<?xml version="1.0" encoding="UTF-8"?>
<svg xmlns="http://www.w3.org/2000/svg" viewBox="0 0 722 229">
  <defs>
    <style>
      .cls-1 {
        fill: #3b359f;
      }

      .cls-1, .cls-2, .cls-3 {
        stroke-width: 0px;
      }

      .cls-2 {
        fill: #c9726f;
      }

      .cls-3 {
        fill: #fff;
      }
    </style>
  </defs>
  <g id="Layer_1" data-name="Layer 1">
    <circle class="cls-2" cx="132.15" cy="122.65" r="68.03"/>
    <path class="cls-1" d="m102.62,183.95s9.47,4.85,20.56,6.15l.75.09c8.83-5.11,19.89-11.67,23.4-15.69,4.97-5.7,11.25-10.37,12.85-23.52s1.83-46.49,1.83-46.49c0-14.99-12.03-27.13-26.88-27.13s-26.88,12.15-26.88,27.13c0,0,.37,16.54-2.56,21.22s-3.07,3.28-3.07,3.28v54.97m0,0,52.3-72.71c-3.35,5.24-11.12,10.09-19.87,10.14-8.75-.04-16.52-4.9-19.87-10.14-3.36-5.26-2.66-12.88-2.66-12.88-.01-6.25,5.04-11.33,11.29-11.35,5.71-.01,10.45,4.21,11.23,9.71.78-5.5,5.52-9.72,11.23-9.71,6.25.01,11.31,5.09,11.29,11.35,0,0,.7,7.62-2.66,12.88Z"/>
    <path class="cls-1" d="m135.04,121.47c-9.05-.04-17.09-4.93-20.56-10.21-3.48-5.29-2.75-12.97-2.75-12.97-.02-6.3,5.22-11.41,11.69-11.42,5.91-.01,10.81,4.24,11.62,9.77v24.83Z"/>
    <path class="cls-1" d="m134.88,108.48c-.59.76-2.61.86-2.61.86l2.78,7.34,2.78-7.34s-2.02-.11-2.61-.86c-.08-.11-.24-.11-.32,0Z"/>
    <path class="cls-1" d="m139.79,105.04c0-.47.28-.78.58-.99.31-.21.69-.32,1.07-.33,4.8-.11,5.22-2.5,5.22-3.28v-3.43s-2.22,0-2.22,0c-.88,0-1.76.16-2.57.51-1.01.43-2.07,1.19-2.07,2.47v5.06Z"/>
    <path class="cls-3" d="m224.18,104.34h6.53v36.71h-6.53v-36.71Z"/>
    <path class="cls-3" d="m246.27,110.25h-11.25v-5.91h29.03v5.91h-11.25v30.8h-6.53v-30.8Z"/>
    <path class="cls-3" d="m278.18,104.34h7.15l6.9,26.44h.1l8.24-26.44h6.43l8.09,26.44h.1l7.21-26.44h6.64l-10.68,36.71h-6.22l-8.5-27.94h-.1l-8.5,27.94h-6.01l-10.84-36.71Z"/>
    <path class="cls-3" d="m331.16,122.85c0-2.94.48-5.61,1.45-8.01.97-2.4,2.31-4.45,4.02-6.14,1.71-1.69,3.75-3,6.12-3.91,2.37-.92,4.97-1.37,7.8-1.37,2.87-.03,5.5.39,7.88,1.27,2.38.88,4.44,2.17,6.17,3.86,1.73,1.69,3.08,3.73,4.04,6.12.97,2.38,1.45,5.05,1.45,7.98s-.48,5.48-1.45,7.83c-.97,2.35-2.32,4.37-4.04,6.07-1.73,1.69-3.78,3.02-6.17,3.97-2.38.95-5.01,1.44-7.88,1.48-2.83,0-5.44-.46-7.8-1.37-2.37-.92-4.41-2.21-6.12-3.89-1.71-1.68-3.05-3.69-4.02-6.04-.97-2.35-1.45-4.96-1.45-7.83Zm6.84-.41c0,1.97.3,3.78.91,5.44.6,1.66,1.46,3.09,2.57,4.3,1.11,1.21,2.43,2.16,3.97,2.85,1.54.69,3.26,1.04,5.16,1.04s3.63-.34,5.18-1.04c1.56-.69,2.89-1.64,3.99-2.85,1.11-1.21,1.96-2.64,2.57-4.3.6-1.66.91-3.47.91-5.44,0-1.83-.3-3.54-.91-5.13-.61-1.59-1.46-2.98-2.57-4.17-1.11-1.19-2.44-2.13-3.99-2.8s-3.28-1.01-5.18-1.01-3.62.34-5.16,1.01c-1.54.67-2.86,1.61-3.97,2.8-1.11,1.19-1.96,2.58-2.57,4.17-.61,1.59-.91,3.3-.91,5.13Z"/>
    <path class="cls-3" d="m376.32,104.34h12.75c1.76,0,3.46.16,5.11.49,1.64.33,3.1.89,4.38,1.68,1.28.8,2.3,1.87,3.06,3.21.76,1.35,1.14,3.06,1.14,5.13,0,2.66-.73,4.89-2.2,6.69-1.47,1.8-3.57,2.89-6.3,3.27l9.75,16.23h-7.88l-8.5-15.55h-4.77v15.55h-6.53v-36.71Zm11.61,15.55c.93,0,1.87-.04,2.8-.13.93-.09,1.79-.29,2.57-.62.78-.33,1.41-.83,1.89-1.5.48-.67.73-1.62.73-2.83,0-1.07-.23-1.94-.67-2.59-.45-.66-1.04-1.15-1.76-1.48-.73-.33-1.53-.54-2.41-.65-.88-.1-1.74-.16-2.57-.16h-5.65v9.95h5.08Z"/>
    <path class="cls-3" d="m408.98,104.34h6.53v15.55h.31l15.19-15.55h8.81l-17.16,16.95,18.3,19.75h-9.18l-15.92-18.04h-.36v18.04h-6.53v-36.71Z"/>
    <path class="cls-3" d="m462.48,112.22c-.69-1-1.62-1.74-2.77-2.2-1.16-.47-2.38-.7-3.66-.7-.76,0-1.5.09-2.2.26-.71.17-1.35.45-1.92.83-.57.38-1.03.87-1.37,1.48-.35.61-.52,1.32-.52,2.15,0,1.24.43,2.2,1.3,2.85.86.66,1.94,1.23,3.21,1.71,1.28.48,2.68.95,4.2,1.4,1.52.45,2.92,1.07,4.2,1.87,1.28.8,2.35,1.85,3.21,3.16.86,1.31,1.3,3.06,1.3,5.24,0,1.97-.36,3.69-1.09,5.16-.73,1.47-1.7,2.69-2.93,3.66-1.23.97-2.65,1.69-4.28,2.18-1.62.48-3.34.73-5.13.73-2.28,0-4.48-.38-6.58-1.14-2.11-.76-3.92-2.04-5.44-3.84l4.93-4.77c.79,1.21,1.84,2.15,3.14,2.83s2.67,1.01,4.12,1.01c.76,0,1.52-.1,2.28-.31.76-.21,1.45-.52,2.07-.93s1.12-.94,1.5-1.58c.38-.64.57-1.37.57-2.2,0-1.35-.43-2.38-1.3-3.11-.86-.73-1.94-1.34-3.21-1.84-1.28-.5-2.68-.98-4.2-1.43-1.52-.45-2.92-1.06-4.2-1.84-1.28-.78-2.35-1.81-3.21-3.11-.86-1.3-1.3-3.03-1.3-5.21,0-1.9.39-3.54,1.17-4.93.78-1.38,1.8-2.53,3.06-3.45,1.26-.92,2.7-1.6,4.33-2.05,1.62-.45,3.28-.67,4.98-.67,1.94,0,3.81.29,5.63.88,1.81.59,3.45,1.56,4.9,2.9l-4.77,5.03Z"/>
    <path class="cls-3" d="m474.25,104.34h6.53v14.62h17.16v-14.62h6.53v36.71h-6.53v-16.18h-17.16v16.18h-6.53v-36.71Z"/>
    <path class="cls-3" d="m510.69,122.85c0-2.94.48-5.61,1.45-8.01.97-2.4,2.31-4.45,4.02-6.14,1.71-1.69,3.75-3,6.12-3.91,2.37-.92,4.97-1.37,7.8-1.37,2.87-.03,5.5.39,7.88,1.27,2.38.88,4.44,2.17,6.17,3.86,1.73,1.69,3.08,3.73,4.04,6.12.97,2.38,1.45,5.05,1.45,7.98s-.48,5.48-1.45,7.83c-.97,2.35-2.32,4.37-4.04,6.07-1.73,1.69-3.78,3.02-6.17,3.97-2.38.95-5.01,1.44-7.88,1.48-2.83,0-5.44-.46-7.8-1.37-2.37-.92-4.41-2.21-6.12-3.89-1.71-1.68-3.05-3.69-4.02-6.04-.97-2.35-1.45-4.96-1.45-7.83Zm6.84-.41c0,1.97.3,3.78.91,5.44.6,1.66,1.46,3.09,2.57,4.3,1.11,1.21,2.43,2.16,3.97,2.85,1.54.69,3.26,1.04,5.16,1.04s3.63-.34,5.18-1.04c1.56-.69,2.89-1.64,3.99-2.85,1.11-1.21,1.96-2.64,2.57-4.3.6-1.66.91-3.47.91-5.44,0-1.83-.3-3.54-.91-5.13-.61-1.59-1.46-2.98-2.57-4.17-1.11-1.19-2.44-2.13-3.99-2.8s-3.28-1.01-5.18-1.01-3.62.34-5.16,1.01c-1.54.67-2.86,1.61-3.97,2.8-1.11,1.19-1.96,2.58-2.57,4.17-.61,1.59-.91,3.3-.91,5.13Z"/>
    <path class="cls-3" d="m650.88,104.34h8.66l17.78,27.27h.1v-27.27h6.53v36.71h-8.29l-18.15-28.15h-.1v28.15h-6.53v-36.71Z"/>
    <circle class="cls-2" cx="530.12" cy="122.63" r="6.69"/>
    <circle class="cls-3" cx="350.74" cy="122.63" r="6.69"/>
    <circle class="cls-2" cx="635.54" cy="122.63" r="6.69"/>
    <rect class="cls-3" x="356.84" y="119.9" width="25.92" height="5.6"/>
    <path class="cls-3" d="m625.73,125.18v9.95h18.72v5.91h-25.25v-36.71h24.31v5.91h-17.78v14.93Z"/>
    <rect class="cls-2" x="530.34" y="120.13" width="85.37" height="5.6"/>
    <rect class="cls-2" x="613.47" y="120.13" width="21.15" height="5.6"/>
    <path class="cls-3" d="m555.85,104.34h12.34c1.76,0,3.46.17,5.11.52,1.64.35,3.08.93,4.33,1.74,1.24.81,2.24,1.9,2.98,3.27.74,1.37,1.11,3.07,1.11,5.11,0,2.32-.4,4.18-1.19,5.6-.8,1.42-1.87,2.51-3.21,3.29-1.35.78-2.91,1.3-4.69,1.58-1.78.28-3.64.41-5.57.41h-4.67v15.19h-6.53v-36.71Zm10.47,15.92c.93,0,1.9-.03,2.9-.1,1-.07,1.93-.28,2.77-.62.85-.34,1.54-.86,2.07-1.56.54-.69.8-1.66.8-2.9,0-1.14-.24-2.05-.73-2.72-.48-.67-1.11-1.19-1.87-1.56-.76-.36-1.61-.6-2.54-.7-.93-.1-1.83-.16-2.7-.16h-4.67v10.32h3.94Z"/>
    <path class="cls-3" d="m587.53,104.34h12.34c1.76,0,3.46.17,5.11.52,1.64.35,3.08.93,4.33,1.74,1.24.81,2.24,1.9,2.98,3.27.74,1.37,1.11,3.07,1.11,5.11,0,2.32-.4,4.18-1.19,5.6-.8,1.42-1.87,2.51-3.21,3.29-1.35.78-2.91,1.3-4.69,1.58-1.78.28-3.64.41-5.57.41h-4.67v15.19h-6.53v-36.71Zm10.47,15.92c.93,0,1.9-.03,2.9-.1,1-.07,1.93-.28,2.77-.62.85-.34,1.54-.86,2.07-1.56.54-.69.8-1.66.8-2.9,0-1.14-.24-2.05-.73-2.72-.48-.67-1.11-1.19-1.87-1.56-.76-.36-1.61-.6-2.54-.7-.93-.1-1.83-.16-2.7-.16h-4.67v10.32h3.94Z"/>
    <g>
      <path class="cls-2" d="m135.05,116.69l-2.78-7.34s2.02-.11,2.61-.86c.04-.05.1-.08.16-.08v8.29Z"/>
      <path class="cls-2" d="m130.44,105.04c0-.47-.28-.78-.58-.99-.31-.21-.69-.32-1.07-.33-4.8-.11-5.22-2.5-5.22-3.28v-3.43h2.22c.88,0,1.76.16,2.57.51,1.01.43,2.07,1.19,2.07,2.47v5.06Z"/>
    </g>
  </g>
  <g id="Layer_3" data-name="Layer 3">
    <path class="cls-2" d="m130.97,125.69c-3.57-2.12-7.68-3.4-12.05-3.58-9.54-.39-17.99,4.37-22.81,11.73-1.31,2-2.69,3.94-4.21,5.79-2.24,2.72-5.56,6.53-9.69,10.53-2.17,2.11-4.74,3.76-7.57,4.83-.56.21-1.16.43-1.81.65,4.25,7.05,9.74,13.28,16.17,18.36h28.84c14.88,0,26.84-12.53,25.9-27.61-.55-8.78-5.57-16.43-12.77-20.69Z"/>
    <path class="cls-1" d="m131.97,127.69c-3.57-2.12-7.68-3.4-12.05-3.58-9.54-.39-17.99,4.37-22.81,11.73-1.31,2-2.69,3.94-4.21,5.79-2.24,2.72-5.56,6.53-9.69,10.53-2.17,2.11-4.74,3.76-7.57,4.83-.56.21-1.16.43-1.81.65,4.25,7.05,9.74,13.28,16.17,18.36h28.84c14.88,0,26.84-12.53,25.9-27.61-.55-8.78-5.57-16.43-12.77-20.69Z"/>
  </g>
</svg>