<?xml version="1.0" encoding="utf-8"?>
<!-- Generator: Adobe Illustrator 28.1.0, SVG Export Plug-In . SVG Version: 6.00 Build 0)  -->
<svg version="1.1" id="Layer_1" xmlns="http://www.w3.org/2000/svg" xmlns:xlink="http://www.w3.org/1999/xlink" x="0px" y="0px"
	 viewBox="0 0 722 229" style="enable-background:new 0 0 722 229;" xml:space="preserve">
<style type="text/css">
	.st0{fill:#C9726F;}
	.st1{fill:#3B359F;}
</style>
<circle class="st0" cx="132.1" cy="122.7" r="68"/>
<path class="st1" d="M102.6,183.9c0,0,9.5,4.9,20.6,6.1l0.8,0.1c8.8-5.1,19.9-11.7,23.4-15.7c5-5.7,11.2-10.4,12.9-23.5
	s1.8-46.5,1.8-46.5c0-15-12-27.1-26.9-27.1s-26.9,12.2-26.9,27.1c0,0,0.4,16.5-2.6,21.2c-2.9,4.7-3.1,3.3-3.1,3.3L102.6,183.9
	 M102.6,184l52.3-72.7c-3.4,5.2-11.1,10.1-19.9,10.1c-8.8,0-16.5-4.9-19.9-10.1c-3.4-5.3-2.7-12.9-2.7-12.9c0-6.2,5-11.3,11.3-11.3
	c5.7,0,10.4,4.2,11.2,9.7c0.8-5.5,5.5-9.7,11.2-9.7c6.2,0,11.3,5.1,11.3,11.3c0,0,0.7,7.6-2.7,12.9L102.6,184z"/>
<path class="st1" d="M135,121.5c-9.1,0-17.1-4.9-20.6-10.2c-3.5-5.3-2.8-13-2.8-13c0-6.3,5.2-11.4,11.7-11.4
	c5.9,0,10.8,4.2,11.6,9.8V121.5z"/>
<path class="st1" d="M134.9,108.5c-0.6,0.8-2.6,0.9-2.6,0.9l2.8,7.3l2.8-7.3c0,0-2-0.1-2.6-0.9C135.1,108.4,135,108.4,134.9,108.5
	L134.9,108.5z"/>
<path class="st1" d="M139.8,105c0-0.5,0.3-0.8,0.6-1c0.3-0.2,0.7-0.3,1.1-0.3c4.8-0.1,5.2-2.5,5.2-3.3V97h-2.2
	c-0.9,0-1.8,0.2-2.6,0.5c-1,0.4-2.1,1.2-2.1,2.5L139.8,105L139.8,105z"/>
<g>
	<path class="st0" d="M135.1,116.7l-2.8-7.3c0,0,2-0.1,2.6-0.9c0-0.1,0.1-0.1,0.2-0.1L135.1,116.7L135.1,116.7z"/>
	<path class="st0" d="M130.4,105c0-0.5-0.3-0.8-0.6-1c-0.3-0.2-0.7-0.3-1.1-0.3c-4.8-0.1-5.2-2.5-5.2-3.3V97h2.2
		c0.9,0,1.8,0.2,2.6,0.5c1,0.4,2.1,1.2,2.1,2.5L130.4,105L130.4,105z"/>
</g>
<g id="Layer_3">
	<path class="st0" d="M131,125.7c-3.6-2.1-7.7-3.4-12.1-3.6c-9.5-0.4-18,4.4-22.8,11.7c-1.3,2-2.7,3.9-4.2,5.8
		c-2.2,2.7-5.6,6.5-9.7,10.5c-2.2,2.1-4.7,3.8-7.6,4.8c-0.6,0.2-1.2,0.4-1.8,0.6c4.2,7.1,9.7,13.3,16.2,18.4h28.8
		c14.9,0,26.8-12.5,25.9-27.6C143.2,137.6,138.2,130,131,125.7L131,125.7z"/>
	<path class="st1" d="M132,127.7c-3.6-2.1-7.7-3.4-12.1-3.6c-9.5-0.4-18,4.4-22.8,11.7c-1.3,2-2.7,3.9-4.2,5.8
		c-2.2,2.7-5.6,6.5-9.7,10.5c-2.2,2.1-4.7,3.8-7.6,4.8c-0.6,0.2-1.2,0.4-1.8,0.6c4.2,7.1,9.7,13.3,16.2,18.4h28.8
		c14.9,0,26.8-12.5,25.9-27.6C144.2,139.6,139.2,132,132,127.7L132,127.7z"/>
</g>
</svg>
